<?xml version="1.0" encoding="UTF-8"?>
<!DOCTYPE svg PUBLIC "-//W3C//DTD SVG 1.1//EN" "http://www.w3.org/Graphics/SVG/1.1/DTD/svg11.dtd">
<!-- Creator: CorelDRAW 2018 (64-Bit Evaluation Version) -->
<svg xmlns="http://www.w3.org/2000/svg" xml:space="preserve" width="3508px" height="2480px" version="1.1" style="shape-rendering:geometricPrecision; text-rendering:geometricPrecision; image-rendering:optimizeQuality; fill-rule:evenodd; clip-rule:evenodd"
viewBox="0 0 3508 2480.4"
 xmlns:xlink="http://www.w3.org/1999/xlink">
 <defs>
  <style type="text/css">
   <![CDATA[
    .str4 {stroke:#373435;stroke-width:11.81;stroke-miterlimit:22.9256}
    .str1 {stroke:#FEFEFE;stroke-width:2.36;stroke-miterlimit:22.9256}
    .str2 {stroke:#373435;stroke-width:2.36;stroke-miterlimit:22.9256}
    .str0 {stroke:#FFF212;stroke-width:1.18;stroke-miterlimit:22.9256}
    .str5 {stroke:#ED3237;stroke-width:1.18;stroke-miterlimit:22.9256}
    .str3 {stroke:#373435;stroke-width:2.36;stroke-miterlimit:22.9256}
    .fil3 {fill:none}
    .fil1 {fill:#FEFEFE}
    .fil5 {fill:#373435}
    .fil2 {fill:#373435}
    .fil0 {fill:#FFF212}
    .fil4 {fill:#ED3237}
   ]]>
  </style>
 </defs>
 <g id="Layer_x0020_1">
  <metadata id="CorelCorpID_0Corel-Layer"/>
  <g id="_1437733276528">
   <ellipse class="fil0 str0" cx="1734.58" cy="1168.2" rx="1114.45" ry="1031.29"/>
   <ellipse class="fil1 str1" cx="1430.78" cy="727.56" rx="214.87" ry="166.72"/>
   <ellipse class="fil2 str2" cx="1430.78" cy="727.56" rx="135.36" ry="105.03"/>
   <g>
    <line class="fil3 str3" x1="1734.58" y1="136.91" x2="1734.58" y2= "136.91" />
   </g>
   <g>
    <line class="fil3 str3" x1="1734.58" y1="136.91" x2="1734.58" y2= "136.91" />
   </g>
   <path class="fil3 str4" d="M2133.15 1398.15c-236.64,481.78 -617.3,487.88 -850.24,13.63"/>
   <g>
    <line class="fil3 str3" x1="2133.15" y1="1398.15" x2="1282.92" y2= "1411.78" />
   </g>
   <ellipse class="fil4 str5" cx="1734.58" cy="1168.2" rx="1114.45" ry="1031.29"/>
   <ellipse class="fil1 str1" cx="1997.64" cy="731.18" rx="214.87" ry="175.12"/>
   <ellipse class="fil2 str2" cx="1997.64" cy="731.18" rx="135.36" ry="110.32"/>
   <ellipse class="fil1 str1" cx="1997.64" cy="731.18" rx="214.87" ry="175.12"/>
   <ellipse class="fil2 str2" cx="1997.64" cy="768.98" rx="135.36" ry="110.32"/>
   <ellipse class="fil1 str1" cx="1430.78" cy="727.56" rx="214.87" ry="166.72"/>
   <ellipse class="fil2 str2" cx="1430.78" cy="761.81" rx="135.36" ry="105.03"/>
   <g>
    <line class="fil3 str3" x1="1734.58" y1="136.91" x2="1734.58" y2= "136.91" />
   </g>
   <g>
    <line class="fil3 str3" x1="1734.58" y1="136.91" x2="1734.58" y2= "136.91" />
   </g>
   <path class="fil5 str4" d="M2133.15 1763.51c-236.64,-481.77 -617.3,-487.88 -850.24,-13.63l850.24 13.63z"/>
   <g>
    <line class="fil3 str3" x1="2133.15" y1="1763.51" x2="1282.92" y2= "1749.88" />
   </g>
  </g>
 </g>
</svg>
